<?xml version="1.0" encoding="utf-8"?>
<!-- Generator: Adobe Illustrator 18.1.0, SVG Export Plug-In . SVG Version: 6.00 Build 0)  -->
<svg version="1.1" id="Layer_1" xmlns="http://www.w3.org/2000/svg" xmlns:xlink="http://www.w3.org/1999/xlink" x="0px" y="0px"
	 viewBox="0 0 144 144" enable-background="new 0 0 144 144" xml:space="preserve">
<g>
	<path d="M44.1,44.4H29.4c-2.7,0-4.5-0.3-5.3-0.9c-0.8-0.6-1.2-1.7-1.2-3.4c0-1.5,0.3-2.5,1-3.2c0.6-0.7,1.7-1,3.1-1h2.4h30.3h2.6
		c1.3,0,2.3,0.4,2.9,1.1c0.6,0.7,1,1.8,1,3.2c0,1.6-0.4,2.7-1.2,3.4c-0.8,0.6-2.5,0.9-5.2,0.9h-7v38c0,9.1-1.8,15.6-5.3,19.7
		c-3.5,4-9.2,6-17,6c-3.4,0-6.7-0.4-9.7-1.3c-3.1-0.9-6.1-2.2-9.2-4c-1.3-0.8-2.1-1.5-2.5-2.2c-0.4-0.7-0.6-2.1-0.6-4v-14
		c0-2.8,0.3-4.5,0.8-5.2c0.5-0.7,1.4-1,2.7-1c0.9,0,1.6,0.2,2.2,0.6c0.6,0.4,1.1,0.9,1.4,1.6c0.1,0.4,0.3,0.9,0.3,1.4
		c0.1,0.6,0.1,1.5,0.1,3v0.6c0,1.3,0.1,2.5,0.2,3.6c0.1,1.1,0.3,2.2,0.5,3.2c0.8,3.1,2.4,5.6,4.7,7.4c2.4,1.8,5.2,2.7,8.5,2.7
		c5,0,8.6-1.5,10.9-4.6c2.2-3.1,3.4-8.1,3.4-15V44.4z"/>
	<path d="M88.6,91.2L98,55.6c0.3-1.3,0.7-2.1,1.1-2.4c0.4-0.3,1.2-0.5,2.3-0.5h2.4c1.1,0,1.8,0.2,2.3,0.5c0.5,0.4,0.8,1.1,1.2,2.1
		l10.6,35.8l5.3-47.3h-8.5c-1.7,0-2.9-0.3-3.7-1c-0.8-0.6-1.2-1.6-1.2-3c0-1.5,0.4-2.6,1.1-3.2c0.7-0.6,2.1-0.9,4.2-0.9h17.6
		c0.8,0,1.5,0.4,2.1,1.2c0.6,0.8,0.9,1.7,0.9,2.9c0,1.3-0.3,2.4-1,3c-0.7,0.7-1.7,1-3.1,1h-0.7l-7.7,59.5c-0.1,1.2-0.3,2-0.6,2.4
		c-0.3,0.4-0.8,0.6-1.5,0.6h-3.9c-0.8,0-1.5-0.2-1.9-0.5c-0.4-0.4-0.8-1-1.1-2l-11.8-40.9L91.9,104c-0.3,1-0.6,1.6-1,2
		c-0.4,0.3-1.1,0.5-2,0.5h-4.1c-0.7,0-1.3-0.2-1.6-0.6c-0.3-0.4-0.6-1.2-0.7-2.6l-8.3-59.4h-0.7c-1.4,0-2.5-0.3-3.2-1
		c-0.7-0.7-1.1-1.7-1.1-3c0-1.2,0.3-2.2,0.9-2.9c0.6-0.8,1.3-1.1,2.1-1.1H90c2,0,3.4,0.3,4.1,0.9c0.7,0.6,1.1,1.6,1.1,3.2
		c0,1.4-0.4,2.4-1.2,3c-0.8,0.6-2,1-3.6,1h-7.7L88.6,91.2z"/>
</g>
</svg>
